<svg xmlns="http://www.w3.org/2000/svg" xmlns:xlink="http://www.w3.org/1999/xlink" xmlns:lucid="lucid" width="1730.95" height="589.96"><g transform="translate(-14.523809523809518 -20)" lucid:page-tab-id="0_0"><path d="M762.62 196.97c0-3.32 2.7-6 6-6H1254c3.3 0 6 2.68 6 6V433c0 3.3-2.7 6-6 6H768.62c-3.3 0-6-2.7-6-6z" stroke="#000" stroke-width="3" fill="#333"/><use xlink:href="#a" transform="matrix(1,0,0,1,774.6190476190475,202.96774193548384) translate(0 70.62499999999999)"/><use xlink:href="#b" transform="matrix(1,0,0,1,774.6190476190475,202.96774193548384) translate(0 106.18055555555553)"/><use xlink:href="#c" transform="matrix(1,0,0,1,774.6190476190475,202.96774193548384) translate(0 141.7361111111111)"/><use xlink:href="#d" transform="matrix(1,0,0,1,774.6190476190475,202.96774193548384) translate(0 177.29166666666663)"/><path d="M382.62 46c0-3.3 2.7-6 6-6h275.14c3.32 0 6 2.7 6 6v138.97c0 3.3-2.68 6-6 6H388.62c-3.3 0-6-2.7-6-6z" stroke="#000" stroke-width="3" fill="#5abaa7"/><use xlink:href="#e" transform="matrix(1,0,0,1,394.6190476190476,52) translate(38.65147569444444 72.5078125)"/><path d="M382.62 245.5c0-3.32 2.7-6 6-6h275.14c3.32 0 6 2.68 6 6v138.97c0 3.3-2.68 6-6 6H388.62c-3.3 0-6-2.7-6-6z" stroke="#000" stroke-width="3" fill="#5abaa7"/><use xlink:href="#f" transform="matrix(1,0,0,1,394.6190476190476,251.49845433354366) translate(1.3120659722222285 72.5078125)"/><path d="M382.62 445c0-3.32 2.7-6 6-6h275.14c3.32 0 6 2.68 6 6v138.96c0 3.32-2.68 6-6 6H388.62c-3.3 0-6-2.68-6-6z" stroke="#000" stroke-width="3" fill="#5abaa7"/><use xlink:href="#g" transform="matrix(1,0,0,1,394.6190476190476,450.9969086670874) translate(66.65603298611111 72.5078125)"/><path d="M1342.62 245.5c0-3.32 2.7-6 6-6h370.86c3.3 0 6 2.68 6 6v138.97c0 3.3-2.7 6-6 6h-370.86c-3.3 0-6-2.7-6-6z" stroke="#000" stroke-width="3" fill="#a3d977"/><use xlink:href="#h" transform="matrix(1,0,0,1,1354.6190476190477,251.49845433354363) translate(11.472656250000057 72.5078125)"/><path d="M34.52 46c0-3.3 2.7-6 6-6h243.24c3.32 0 6 2.7 6 6v138.97c0 3.3-2.68 6-6 6H40.52c-3.3 0-6-2.7-6-6z" stroke="#000" stroke-width="3" fill="#a3d977"/><use xlink:href="#i" transform="matrix(1,0,0,1,46.52380952380952,52) translate(13.316623263888886 72.5078125)"/><path d="M1262.5 314.98h60.12" stroke="#000" stroke-width="2" fill="none"/><path d="M1262.53 315.98h-1.03v-2h1.03z"/><path d="M1337.88 314.98l-14.26 4.64v-9.27z" stroke="#000" stroke-width="2"/><path d="M380.12 115.48h-70.36" stroke="#000" stroke-width="2" fill="none"/><path d="M381.12 116.48h-1.03v-2h1.02z"/><path d="M294.5 115.48l14.26-4.63v9.27z" stroke="#000" stroke-width="2"/><path d="M672.26 115.48h122.16c3.3 0 6 2.7 6 6v49.5" stroke="#000" stroke-width="2" fill="none"/><path d="M672.3 116.48h-1.04v-2h1.03z"/><path d="M800.42 186.23l-4.64-14.26h9.28z" stroke="#000" stroke-width="2"/><path d="M672.26 314.98h70.35" stroke="#000" stroke-width="2" fill="none"/><path d="M672.3 315.98h-1.04v-2h1.03z"/><path d="M757.88 314.98l-14.26 4.64v-9.27z" stroke="#000" stroke-width="2"/><path d="M672.26 514.48H796.4c3.32 0 6-2.7 6-6V459" stroke="#000" stroke-width="2" fill="none"/><path d="M672.3 515.48h-1.04v-2h1.03z"/><path d="M802.4 443.73l4.64 14.27h-9.27z" stroke="#000" stroke-width="2"/><defs><path fill="#b391b5" d="M839-1335c-182-6-269 67-259 253h491v142H580V0H400v-940H138v-142h262c-15-293 132-408 418-402 94 2 200 7 281 21v145c-75-10-177-14-260-17" id="j"/><path fill="#b391b5" d="M1000-272c3 95 12 159 101 161 21 0 41-3 59-7V-6c-44 10-86 16-139 16-141 2-191-84-197-217h-6C748-76 648 20 446 20c-207 0-318-120-318-322 0-266 194-348 454-354l236-4c12-191-40-305-222-305-140 0-220 47-232 172l-188-17c33-204 181-292 423-292 255 0 401 118 401 364v466zm-683-27c0 109 63 184 175 182 166-3 259-96 306-217 24-65 20-120 20-200-232 7-501-28-501 235" id="k"/><path fill="#b391b5" d="M736-142h380V0H134v-142h422v-1200H267v-142h469v1342" id="l"/><path fill="#b391b5" d="M1121-976c0 225-142 341-344 379L1177 0H957L591-575H353V0H162v-1349h482c281 3 477 100 477 373zM633-726c181-1 296-73 296-247 0-149-101-223-304-223H353v470h280" id="m"/><path fill="#b391b5" d="M528 20c-247 0-343-132-343-381v-721h180v686c-4 177 45 284 224 277 194-8 279-136 279-336v-627h181c3 360-6 732 6 1082H885c-4-54-7-126-8-185h-3C809-64 714 20 528 20" id="n"/><path fill="#b391b5" d="M706-1102c241 0 344 136 343 381V0H868v-695c1-168-57-273-220-268-190 6-283 138-283 336V0H185c-3-360 6-732-6-1082h170c4 54 7 126 8 185h3c63-121 164-204 346-205" id="o"/><path fill="#b391b5" d="M473-1349c438-1 655 221 652 661C1122-268 945-8 532 0H162v-1349h311zm42 1193c308-4 416-205 418-532 2-330-131-509-459-505H353v1037h162" id="p"/><path fill="#b391b5" d="M614-1226c-167 1-283 53-283 213 0 183 186 193 334 234 230 63 463 120 463 409 0 286-219 387-518 390C309 23 131-98 79-338l185-37c34 165 149 248 351 246 184-2 324-58 324-238 0-203-207-221-372-266-210-57-422-111-422-377 0-267 201-356 470-360 279-5 430 101 480 324l-188 33c-28-141-121-215-293-213" id="q"/><path fill="#b391b5" d="M285-1169c8 382 2 780 4 1169H129v-1349h237c86 239 188 461 253 720 69-258 169-481 255-720h225V0H937c2-390-5-788 6-1169-75 255-170 488-259 729H547c-90-240-185-475-262-729" id="r"/><path fill="#3aa6dd" d="M496 0v-299h235V0H496zm0-783v-299h235v299H496" id="s"/><path fill="#fcc438" d="M698-1104c312 3 392 244 392 558 0 315-82 566-392 566-169 0-277-65-331-184h-5c8 188 2 394 4 589H185V-858c0-76-1-156-6-224h175c6 52 9 120 10 178h4c58-122 150-202 330-200zm-49 991c225 0 255-203 255-433 0-225-32-419-253-419-236 0-285 192-285 441 0 237 53 411 283 411" id="t"/><path fill="#fcc438" d="M1000-272c3 95 12 159 101 161 21 0 41-3 59-7V-6c-44 10-86 16-139 16-141 2-191-84-197-217h-6C748-76 648 20 446 20c-207 0-318-120-318-322 0-266 194-348 454-354l236-4c12-191-40-305-222-305-140 0-220 47-232 172l-188-17c33-204 181-292 423-292 255 0 401 118 401 364v466zm-683-27c0 109 63 184 175 182 166-3 259-96 306-217 24-65 20-120 20-200-232 7-501-28-501 235" id="u"/><path fill="#fcc438" d="M839-1102c70 0 148 7 206 17v167c-112-18-268-36-363 15-129 69-208 203-208 395V0H294c-10-367 32-789-52-1082h171c21 75 41 161 48 250h5c67-152 152-270 373-270" id="v"/><path fill="#fcc438" d="M904-1102c199 0 220 177 220 381V0H956v-686c-3-114 0-215-60-264-70-33-125-4-158 71-26 56-39 140-39 252V0H531v-686c-3-114-1-215-61-264-78-41-136 24-157 84-24 69-39 159-39 259V0H105c-3-360 6-732-6-1082h149c6 50 3 123 8 175 36-100 83-195 216-195 135 0 166 79 196 196 42-105 93-196 236-196" id="w"/><path fill="#fcc438" d="M873-819c-18-114-119-146-250-146-163 0-245 50-245 151 0 151 170 148 294 185 182 54 388 94 388 320 0 240-189 325-439 329-245 4-410-69-454-268l159-31c24 133 136 168 295 165 144-2 270-31 270-171 0-164-195-160-331-202-167-52-350-87-350-299 0-218 173-315 413-313 220 2 373 77 412 260" id="x"/><g id="a"><use transform="matrix(0.017361111111111105,0,0,0.017361111111111105,0,0)" xlink:href="#j"/><use transform="matrix(0.017361111111111105,0,0,0.017361111111111105,21.336805555555546,0)" xlink:href="#k"/><use transform="matrix(0.017361111111111105,0,0,0.017361111111111105,42.67361111111109,0)" xlink:href="#l"/><use transform="matrix(0.017361111111111105,0,0,0.017361111111111105,64.01041666666664,0)" xlink:href="#l"/><use transform="matrix(0.017361111111111105,0,0,0.017361111111111105,85.34722222222219,0)" xlink:href="#m"/><use transform="matrix(0.017361111111111105,0,0,0.017361111111111105,106.68402777777773,0)" xlink:href="#n"/><use transform="matrix(0.017361111111111105,0,0,0.017361111111111105,128.0208333333333,0)" xlink:href="#o"/><use transform="matrix(0.017361111111111105,0,0,0.017361111111111105,149.35763888888883,0)" xlink:href="#p"/><use transform="matrix(0.017361111111111105,0,0,0.017361111111111105,170.69444444444437,0)" xlink:href="#q"/><use transform="matrix(0.017361111111111105,0,0,0.017361111111111105,192.0312499999999,0)" xlink:href="#r"/><use transform="matrix(0.017361111111111105,0,0,0.017361111111111105,213.36805555555546,0)" xlink:href="#s"/><use transform="matrix(0.017361111111111105,0,0,0.017361111111111105,234.704861111111,0)" xlink:href="#s"/><use transform="matrix(0.017361111111111105,0,0,0.017361111111111105,256.0416666666666,0)" xlink:href="#t"/><use transform="matrix(0.017361111111111105,0,0,0.017361111111111105,277.3784722222221,0)" xlink:href="#u"/><use transform="matrix(0.017361111111111105,0,0,0.017361111111111105,298.71527777777766,0)" xlink:href="#v"/><use transform="matrix(0.017361111111111105,0,0,0.017361111111111105,320.0520833333332,0)" xlink:href="#u"/><use transform="matrix(0.017361111111111105,0,0,0.017361111111111105,341.38888888888874,0)" xlink:href="#w"/><use transform="matrix(0.017361111111111105,0,0,0.017361111111111105,362.72569444444434,0)" xlink:href="#x"/></g><path fill="#b391b5" d="M682 16c-209 0-323-80-324-285v-671H190v-142h170l58-282h120v282h432v142H538v652c2 114 60 155 182 155 106 0 209-16 297-34v137C921-4 806 16 682 16" id="y"/><path fill="#b391b5" d="M617-1102c355 0 481 238 477 599H322c5 222 84 388 301 388 144 0 244-59 284-166l158 45C1002-72 854 20 623 20c-342 0-490-220-490-568 0-346 151-554 484-554zm291 461c-18-192-90-328-289-328-194 0-287 128-295 328h584" id="z"/><path fill="#b391b5" d="M385-1193v494h676v158H385V0H194v-1349h891v156H385" id="A"/><g id="b"><use transform="matrix(0.017361111111111105,0,0,0.017361111111111105,0,0)" xlink:href="#l"/><use transform="matrix(0.017361111111111105,0,0,0.017361111111111105,21.336805555555546,0)" xlink:href="#k"/><use transform="matrix(0.017361111111111105,0,0,0.017361111111111105,42.67361111111109,0)" xlink:href="#y"/><use transform="matrix(0.017361111111111105,0,0,0.017361111111111105,64.01041666666664,0)" xlink:href="#z"/><use transform="matrix(0.017361111111111105,0,0,0.017361111111111105,85.34722222222219,0)" xlink:href="#A"/><use transform="matrix(0.017361111111111105,0,0,0.017361111111111105,106.68402777777773,0)" xlink:href="#k"/><use transform="matrix(0.017361111111111105,0,0,0.017361111111111105,128.0208333333333,0)" xlink:href="#l"/><use transform="matrix(0.017361111111111105,0,0,0.017361111111111105,149.35763888888883,0)" xlink:href="#l"/><use transform="matrix(0.017361111111111105,0,0,0.017361111111111105,170.69444444444437,0)" xlink:href="#m"/><use transform="matrix(0.017361111111111105,0,0,0.017361111111111105,192.0312499999999,0)" xlink:href="#n"/><use transform="matrix(0.017361111111111105,0,0,0.017361111111111105,213.36805555555546,0)" xlink:href="#o"/><use transform="matrix(0.017361111111111105,0,0,0.017361111111111105,234.704861111111,0)" xlink:href="#p"/><use transform="matrix(0.017361111111111105,0,0,0.017361111111111105,256.0416666666666,0)" xlink:href="#q"/><use transform="matrix(0.017361111111111105,0,0,0.017361111111111105,277.3784722222221,0)" xlink:href="#r"/><use transform="matrix(0.017361111111111105,0,0,0.017361111111111105,298.71527777777766,0)" xlink:href="#s"/><use transform="matrix(0.017361111111111105,0,0,0.017361111111111105,320.0520833333332,0)" xlink:href="#s"/><use transform="matrix(0.017361111111111105,0,0,0.017361111111111105,341.38888888888874,0)" xlink:href="#t"/><use transform="matrix(0.017361111111111105,0,0,0.017361111111111105,362.72569444444434,0)" xlink:href="#u"/><use transform="matrix(0.017361111111111105,0,0,0.017361111111111105,384.0624999999998,0)" xlink:href="#v"/><use transform="matrix(0.017361111111111105,0,0,0.017361111111111105,405.3993055555554,0)" xlink:href="#u"/><use transform="matrix(0.017361111111111105,0,0,0.017361111111111105,426.7361111111109,0)" xlink:href="#w"/><use transform="matrix(0.017361111111111105,0,0,0.017361111111111105,448.07291666666646,0)" xlink:href="#x"/></g><path fill="#b391b5" d="M1018 0H814c-67-224-138-444-200-673C552-442 476-224 407 0H204L21-1082h178c43 310 105 601 126 933 54-225 128-425 193-638h193c63 212 134 415 185 638 22-336 90-622 136-933h176" id="B"/><path fill="#b391b5" d="M745-142h380V0H143v-142h422v-798H246v-142h499v940zM545-1292v-192h200v192H545" id="C"/><path fill="#b391b5" d="M839-1102c70 0 148 7 206 17v167c-112-18-268-36-363 15-129 69-208 203-208 395V0H294c-10-367 32-789-52-1082h171c21 75 41 161 48 250h5c67-152 152-270 373-270" id="D"/><g id="c"><use transform="matrix(0.017361111111111105,0,0,0.017361111111111105,0,0)" xlink:href="#B"/><use transform="matrix(0.017361111111111105,0,0,0.017361111111111105,21.336805555555546,0)" xlink:href="#C"/><use transform="matrix(0.017361111111111105,0,0,0.017361111111111105,42.67361111111109,0)" xlink:href="#o"/><use transform="matrix(0.017361111111111105,0,0,0.017361111111111105,64.01041666666664,0)" xlink:href="#y"/><use transform="matrix(0.017361111111111105,0,0,0.017361111111111105,85.34722222222219,0)" xlink:href="#z"/><use transform="matrix(0.017361111111111105,0,0,0.017361111111111105,106.68402777777773,0)" xlink:href="#D"/><use transform="matrix(0.017361111111111105,0,0,0.017361111111111105,128.0208333333333,0)" xlink:href="#m"/><use transform="matrix(0.017361111111111105,0,0,0.017361111111111105,149.35763888888883,0)" xlink:href="#n"/><use transform="matrix(0.017361111111111105,0,0,0.017361111111111105,170.69444444444437,0)" xlink:href="#o"/><use transform="matrix(0.017361111111111105,0,0,0.017361111111111105,192.0312499999999,0)" xlink:href="#p"/><use transform="matrix(0.017361111111111105,0,0,0.017361111111111105,213.36805555555546,0)" xlink:href="#q"/><use transform="matrix(0.017361111111111105,0,0,0.017361111111111105,234.704861111111,0)" xlink:href="#r"/><use transform="matrix(0.017361111111111105,0,0,0.017361111111111105,256.0416666666666,0)" xlink:href="#s"/><use transform="matrix(0.017361111111111105,0,0,0.017361111111111105,277.3784722222221,0)" xlink:href="#s"/><use transform="matrix(0.017361111111111105,0,0,0.017361111111111105,298.71527777777766,0)" xlink:href="#t"/><use transform="matrix(0.017361111111111105,0,0,0.017361111111111105,320.0520833333332,0)" xlink:href="#u"/><use transform="matrix(0.017361111111111105,0,0,0.017361111111111105,341.38888888888874,0)" xlink:href="#v"/><use transform="matrix(0.017361111111111105,0,0,0.017361111111111105,362.72569444444434,0)" xlink:href="#u"/><use transform="matrix(0.017361111111111105,0,0,0.017361111111111105,384.0624999999998,0)" xlink:href="#w"/><use transform="matrix(0.017361111111111105,0,0,0.017361111111111105,405.3993055555554,0)" xlink:href="#x"/></g><path fill="#b391b5" d="M873-819c-18-114-119-146-250-146-163 0-245 50-245 151 0 151 170 148 294 185 182 54 388 94 388 320 0 240-189 325-439 329-245 4-410-69-454-268l159-31c24 133 136 168 295 165 144-2 270-31 270-171 0-164-195-160-331-202-167-52-350-87-350-299 0-218 173-315 413-313 220 2 373 77 412 260" id="E"/><path fill="#b391b5" d="M698-1104c312 3 392 244 392 558 0 315-82 566-392 566-169 0-277-65-331-184h-5c8 188 2 394 4 589H185V-858c0-76-1-156-6-224h175c6 52 9 120 10 178h4c58-122 150-202 330-200zm-49 991c225 0 255-203 255-433 0-225-32-419-253-419-236 0-285 192-285 441 0 237 53 411 283 411" id="F"/><path fill="#b391b5" d="M1048-32c-2 300-135 456-433 456-222-1-358-88-400-267l184-25c22 99 100 157 222 156 184-2 248-125 248-315 0-64 3-133-2-194C807-100 706-13 524-12c-306 0-381-228-381-537 0-318 85-550 400-550 164 0 271 83 325 202h3c1-60 3-134 12-185h171c-13 339-4 702-6 1050zM585-145c210-8 284-178 284-406 0-192-52-331-177-392-33-16-69-22-104-22-223 2-259 184-259 414 0 229 31 415 256 406" id="G"/><g id="d"><use transform="matrix(0.017361111111111105,0,0,0.017361111111111105,0,0)" xlink:href="#E"/><use transform="matrix(0.017361111111111105,0,0,0.017361111111111105,21.336805555555546,0)" xlink:href="#F"/><use transform="matrix(0.017361111111111105,0,0,0.017361111111111105,42.67361111111109,0)" xlink:href="#D"/><use transform="matrix(0.017361111111111105,0,0,0.017361111111111105,64.01041666666664,0)" xlink:href="#C"/><use transform="matrix(0.017361111111111105,0,0,0.017361111111111105,85.34722222222219,0)" xlink:href="#o"/><use transform="matrix(0.017361111111111105,0,0,0.017361111111111105,106.68402777777773,0)" xlink:href="#G"/><use transform="matrix(0.017361111111111105,0,0,0.017361111111111105,128.0208333333333,0)" xlink:href="#m"/><use transform="matrix(0.017361111111111105,0,0,0.017361111111111105,149.35763888888883,0)" xlink:href="#n"/><use transform="matrix(0.017361111111111105,0,0,0.017361111111111105,170.69444444444437,0)" xlink:href="#o"/><use transform="matrix(0.017361111111111105,0,0,0.017361111111111105,192.0312499999999,0)" xlink:href="#p"/><use transform="matrix(0.017361111111111105,0,0,0.017361111111111105,213.36805555555546,0)" xlink:href="#q"/><use transform="matrix(0.017361111111111105,0,0,0.017361111111111105,234.704861111111,0)" xlink:href="#r"/><use transform="matrix(0.017361111111111105,0,0,0.017361111111111105,256.0416666666666,0)" xlink:href="#s"/><use transform="matrix(0.017361111111111105,0,0,0.017361111111111105,277.3784722222221,0)" xlink:href="#s"/><use transform="matrix(0.017361111111111105,0,0,0.017361111111111105,298.71527777777766,0)" xlink:href="#t"/><use transform="matrix(0.017361111111111105,0,0,0.017361111111111105,320.0520833333332,0)" xlink:href="#u"/><use transform="matrix(0.017361111111111105,0,0,0.017361111111111105,341.38888888888874,0)" xlink:href="#v"/><use transform="matrix(0.017361111111111105,0,0,0.017361111111111105,362.72569444444434,0)" xlink:href="#u"/><use transform="matrix(0.017361111111111105,0,0,0.017361111111111105,384.0624999999998,0)" xlink:href="#w"/><use transform="matrix(0.017361111111111105,0,0,0.017361111111111105,405.3993055555554,0)" xlink:href="#x"/></g><path d="M473-1349c438-1 655 221 652 661C1122-268 945-8 532 0H162v-1349h311zm42 1193c308-4 416-205 418-532 2-330-131-509-459-505H353v1037h162" id="H"/><path d="M614-1226c-167 1-283 53-283 213 0 183 186 193 334 234 230 63 463 120 463 409 0 286-219 387-518 390C309 23 131-98 79-338l185-37c34 165 149 248 351 246 184-2 324-58 324-238 0-203-207-221-372-266-210-57-422-111-422-377 0-267 201-356 470-360 279-5 430 101 480 324l-188 33c-28-141-121-215-293-213" id="I"/><path d="M285-1169c8 382 2 780 4 1169H129v-1349h237c86 239 188 461 253 720 69-258 169-481 255-720h225V0H937c2-390-5-788 6-1169-75 255-170 488-259 729H547c-90-240-185-475-262-729" id="J"/><path d="M648-963c-190 6-283 138-283 336V0H185v-1484h181c-2 197 6 404-9 587h3c62-120 159-205 339-205 242 0 351 135 350 381V0H868v-695c1-168-57-273-220-268" id="K"/><path d="M1000-272c3 95 12 159 101 161 21 0 41-3 59-7V-6c-44 10-86 16-139 16-141 2-191-84-197-217h-6C748-76 648 20 446 20c-207 0-318-120-318-322 0-266 194-348 454-354l236-4c12-191-40-305-222-305-140 0-220 47-232 172l-188-17c33-204 181-292 423-292 255 0 401 118 401 364v466zm-683-27c0 109 63 184 175 182 166-3 259-96 306-217 24-65 20-120 20-200-232 7-501-28-501 235" id="L"/><path d="M365-904c58-129 161-200 334-200 130 0 228 46 293 138s98 233 98 420c0 189-34 331-102 425S824 20 698 20c-170 0-275-64-336-184 0 55-3 116-9 164H179c5-68 6-147 6-223v-1261h180c-2 193 4 394-4 580h4zm283 791c221 0 256-197 256-427 0-229-34-425-254-425-236 0-285 195-285 441 0 237 53 411 283 411" id="M"/><path d="M745-142h380V0H143v-142h422v-798H246v-142h499v940zM545-1292v-192h200v192H545" id="N"/><path d="M682 16c-209 0-323-80-324-285v-671H190v-142h170l58-282h120v282h432v142H538v652c2 114 60 155 182 155 106 0 209-16 297-34v137C921-4 806 16 682 16" id="O"/><g id="e"><use transform="matrix(0.015190972222222219,0,0,0.015190972222222219,0,0)" xlink:href="#H"/><use transform="matrix(0.015190972222222219,0,0,0.015190972222222219,18.669704861111107,0)" xlink:href="#I"/><use transform="matrix(0.015190972222222219,0,0,0.015190972222222219,37.339409722222214,0)" xlink:href="#J"/><use transform="matrix(0.015190972222222219,0,0,0.015190972222222219,56.00911458333332,0)" xlink:href="#K"/><use transform="matrix(0.015190972222222219,0,0,0.015190972222222219,74.67881944444443,0)" xlink:href="#L"/><use transform="matrix(0.015190972222222219,0,0,0.015190972222222219,93.34852430555554,0)" xlink:href="#M"/><use transform="matrix(0.015190972222222219,0,0,0.015190972222222219,112.01822916666666,0)" xlink:href="#N"/><use transform="matrix(0.015190972222222219,0,0,0.015190972222222219,130.68793402777777,0)" xlink:href="#O"/><use transform="matrix(0.015190972222222219,0,0,0.015190972222222219,149.35763888888889,0)" xlink:href="#L"/><use transform="matrix(0.015190972222222219,0,0,0.015190972222222219,168.02734375,0)" xlink:href="#O"/></g><path d="M617-1102c355 0 481 238 477 599H322c5 222 84 388 301 388 144 0 244-59 284-166l158 45C1002-72 854 20 623 20c-342 0-490-220-490-568 0-346 151-554 484-554zm291 461c-18-192-90-328-289-328-194 0-287 128-295 328h584" id="P"/><path d="M904-1102c199 0 220 177 220 381V0H956v-686c-3-114 0-215-60-264-70-33-125-4-158 71-26 56-39 140-39 252V0H531v-686c-3-114-1-215-61-264-78-41-136 24-157 84-24 69-39 159-39 259V0H105c-3-360 6-732-6-1082h149c6 50 3 123 8 175 36-100 83-195 216-195 135 0 166 79 196 196 42-105 93-196 236-196" id="Q"/><path d="M698-1104c312 3 392 244 392 558 0 315-82 566-392 566-169 0-277-65-331-184h-5c8 188 2 394 4 589H185V-858c0-76-1-156-6-224h175c6 52 9 120 10 178h4c58-122 150-202 330-200zm-49 991c225 0 255-203 255-433 0-225-32-419-253-419-236 0-285 192-285 441 0 237 53 411 283 411" id="R"/><path d="M839-1102c70 0 148 7 206 17v167c-112-18-268-36-363 15-129 69-208 203-208 395V0H294c-10-367 32-789-52-1082h171c21 75 41 161 48 250h5c67-152 152-270 373-270" id="S"/><path d="M528 20c-247 0-343-132-343-381v-721h180v686c-4 177 45 284 224 277 194-8 279-136 279-336v-627h181c3 360-6 732 6 1082H885c-4-54-7-126-8-185h-3C809-64 714 20 528 20" id="T"/><g id="f"><use transform="matrix(0.015190972222222219,0,0,0.015190972222222219,0,0)" xlink:href="#H"/><use transform="matrix(0.015190972222222219,0,0,0.015190972222222219,18.669704861111107,0)" xlink:href="#I"/><use transform="matrix(0.015190972222222219,0,0,0.015190972222222219,37.339409722222214,0)" xlink:href="#J"/><use transform="matrix(0.015190972222222219,0,0,0.015190972222222219,56.00911458333332,0)" xlink:href="#O"/><use transform="matrix(0.015190972222222219,0,0,0.015190972222222219,74.67881944444443,0)" xlink:href="#P"/><use transform="matrix(0.015190972222222219,0,0,0.015190972222222219,93.34852430555554,0)" xlink:href="#Q"/><use transform="matrix(0.015190972222222219,0,0,0.015190972222222219,112.01822916666666,0)" xlink:href="#R"/><use transform="matrix(0.015190972222222219,0,0,0.015190972222222219,130.68793402777777,0)" xlink:href="#P"/><use transform="matrix(0.015190972222222219,0,0,0.015190972222222219,149.35763888888889,0)" xlink:href="#S"/><use transform="matrix(0.015190972222222219,0,0,0.015190972222222219,168.02734375,0)" xlink:href="#L"/><use transform="matrix(0.015190972222222219,0,0,0.015190972222222219,186.69704861111111,0)" xlink:href="#O"/><use transform="matrix(0.015190972222222219,0,0,0.015190972222222219,205.36675347222223,0)" xlink:href="#T"/><use transform="matrix(0.015190972222222219,0,0,0.015190972222222219,224.03645833333334,0)" xlink:href="#S"/><use transform="matrix(0.015190972222222219,0,0,0.015190972222222219,242.70616319444446,0)" xlink:href="#P"/></g><path d="M839-1335c-182-6-269 67-259 253h491v142H580V0H400v-940H138v-142h262c-15-293 132-408 418-402 94 2 200 7 281 21v145c-75-10-177-14-260-17" id="U"/><path d="M736-142h380V0H134v-142h422v-1200H267v-142h469v1342" id="V"/><path d="M615-1102c343 0 484 203 482 560-1 347-147 562-488 562-336 0-475-219-479-562-4-349 156-560 485-560zm-8 989c240 0 301-180 301-429 0-245-55-427-290-427-236 0-299 181-299 427 0 243 61 429 288 429" id="W"/><path d="M1018 0H814c-67-224-138-444-200-673C552-442 476-224 407 0H204L21-1082h178c43 310 105 601 126 933 54-225 128-425 193-638h193c63 212 134 415 185 638 22-336 90-622 136-933h176" id="X"/><g id="g"><use transform="matrix(0.015190972222222219,0,0,0.015190972222222219,0,0)" xlink:href="#H"/><use transform="matrix(0.015190972222222219,0,0,0.015190972222222219,18.669704861111107,0)" xlink:href="#I"/><use transform="matrix(0.015190972222222219,0,0,0.015190972222222219,37.339409722222214,0)" xlink:href="#J"/><use transform="matrix(0.015190972222222219,0,0,0.015190972222222219,56.00911458333332,0)" xlink:href="#U"/><use transform="matrix(0.015190972222222219,0,0,0.015190972222222219,74.67881944444443,0)" xlink:href="#V"/><use transform="matrix(0.015190972222222219,0,0,0.015190972222222219,93.34852430555554,0)" xlink:href="#W"/><use transform="matrix(0.015190972222222219,0,0,0.015190972222222219,112.01822916666666,0)" xlink:href="#X"/></g><path d="M650-1214c-281 0-336 244-336 533 0 295 60 546 347 546 188 0 263-142 322-282l159 65C1058-155 935 20 659 20c-401 0-546-295-546-701 0-407 135-689 536-689 264 0 391 146 466 335l-168 65c-47-129-127-244-297-244" id="Y"/><path d="M706-1102c241 0 344 136 343 381V0H868v-695c1-168-57-273-220-268-190 6-283 138-283 336V0H185c-3-360 6-732-6-1082h170c4 54 7 126 8 185h3c63-121 164-204 346-205" id="Z"/><g id="h"><use transform="matrix(0.015190972222222219,0,0,0.015190972222222219,0,0)" xlink:href="#H"/><use transform="matrix(0.015190972222222219,0,0,0.015190972222222219,18.669704861111107,0)" xlink:href="#I"/><use transform="matrix(0.015190972222222219,0,0,0.015190972222222219,37.339409722222214,0)" xlink:href="#J"/><use transform="matrix(0.015190972222222219,0,0,0.015190972222222219,56.00911458333332,0)" xlink:href="#Y"/><use transform="matrix(0.015190972222222219,0,0,0.015190972222222219,74.67881944444443,0)" xlink:href="#L"/><use transform="matrix(0.015190972222222219,0,0,0.015190972222222219,93.34852430555554,0)" xlink:href="#V"/><use transform="matrix(0.015190972222222219,0,0,0.015190972222222219,112.01822916666666,0)" xlink:href="#N"/><use transform="matrix(0.015190972222222219,0,0,0.015190972222222219,130.68793402777777,0)" xlink:href="#M"/><use transform="matrix(0.015190972222222219,0,0,0.015190972222222219,149.35763888888889,0)" xlink:href="#S"/><use transform="matrix(0.015190972222222219,0,0,0.015190972222222219,168.02734375,0)" xlink:href="#L"/><use transform="matrix(0.015190972222222219,0,0,0.015190972222222219,186.69704861111111,0)" xlink:href="#O"/><use transform="matrix(0.015190972222222219,0,0,0.015190972222222219,205.36675347222223,0)" xlink:href="#N"/><use transform="matrix(0.015190972222222219,0,0,0.015190972222222219,224.03645833333334,0)" xlink:href="#W"/><use transform="matrix(0.015190972222222219,0,0,0.015190972222222219,242.70616319444446,0)" xlink:href="#Z"/><use transform="matrix(0.015190972222222219,0,0,0.015190972222222219,261.37586805555554,0)" xlink:href="#H"/><use transform="matrix(0.015190972222222219,0,0,0.015190972222222219,280.04557291666663,0)" xlink:href="#L"/><use transform="matrix(0.015190972222222219,0,0,0.015190972222222219,298.7152777777777,0)" xlink:href="#O"/><use transform="matrix(0.015190972222222219,0,0,0.015190972222222219,317.3849826388888,0)" xlink:href="#L"/></g><path d="M873-819c-18-114-119-146-250-146-163 0-245 50-245 151 0 151 170 148 294 185 182 54 388 94 388 320 0 240-189 325-439 329-245 4-410-69-454-268l159-31c24 133 136 168 295 165 144-2 270-31 270-171 0-164-195-160-331-202-167-52-350-87-350-299 0-218 173-315 413-313 220 2 373 77 412 260" id="aa"/><path d="M631 20c-350 0-501-215-501-562 0-355 162-560 502-560 250 0 399 118 446 323l-192 14c-23-124-109-196-262-196-242 0-305 171-305 415 1 245 61 427 304 427 151 0 248-77 267-215l190 12C1039-107 883 20 631 20" id="ab"/><g id="i"><use transform="matrix(0.015190972222222219,0,0,0.015190972222222219,0,0)" xlink:href="#H"/><use transform="matrix(0.015190972222222219,0,0,0.015190972222222219,18.669704861111107,0)" xlink:href="#I"/><use transform="matrix(0.015190972222222219,0,0,0.015190972222222219,37.339409722222214,0)" xlink:href="#J"/><use transform="matrix(0.015190972222222219,0,0,0.015190972222222219,56.00911458333332,0)" xlink:href="#aa"/><use transform="matrix(0.015190972222222219,0,0,0.015190972222222219,74.67881944444443,0)" xlink:href="#ab"/><use transform="matrix(0.015190972222222219,0,0,0.015190972222222219,93.34852430555554,0)" xlink:href="#P"/><use transform="matrix(0.015190972222222219,0,0,0.015190972222222219,112.01822916666666,0)" xlink:href="#Z"/><use transform="matrix(0.015190972222222219,0,0,0.015190972222222219,130.68793402777777,0)" xlink:href="#L"/><use transform="matrix(0.015190972222222219,0,0,0.015190972222222219,149.35763888888889,0)" xlink:href="#S"/><use transform="matrix(0.015190972222222219,0,0,0.015190972222222219,168.02734375,0)" xlink:href="#N"/><use transform="matrix(0.015190972222222219,0,0,0.015190972222222219,186.69704861111111,0)" xlink:href="#W"/></g></defs></g></svg>